<svg xmlns="http://www.w3.org/2000/svg" xmlns:xlink="http://www.w3.org/1999/xlink" viewBox="0 0 71.84 71.02"><defs><style>.cls-1{fill:none;}.cls-2{isolation:isolate;}.cls-3{fill:#0d7206;}.cls-4{clip-path:url(#clip-path);}</style><clipPath id="clip-path"><rect class="cls-1" x="21.33" y="54.2" width="28" height="33.67"/></clipPath></defs><g id="圖層_2" data-name="圖層 2"><g id="圖層_1-2" data-name="圖層 1"><g id="FAIRE_DEFILER" data-name="FAIRE DEFILER" class="cls-2"><g class="cls-2"><path class="cls-3" d="M11.67,13V0h8.22V2.48H14.61v3h4.52V8H14.61V13Z"/><path class="cls-3" d="M19.71,13,23.79,0h3.54l4.08,13H28.29l-.8-3.1h-4l-.8,3.1Zm4.72-6.6-.32,1.2h2.78l-.3-1.2c-.17-.65-.35-1.35-.53-2.08l-.53-2.12h-.08L25,4.37C24.79,5.1,24.62,5.79,24.43,6.44Z"/><path class="cls-3" d="M32.83,13V0h2.94V13Z"/><path class="cls-3" d="M38.85,13V0h4.7a8,8,0,0,1,2.52.37,3.65,3.65,0,0,1,1.82,1.25,3.93,3.93,0,0,1,.68,2.44,4.14,4.14,0,0,1-.63,2.37,3.85,3.85,0,0,1-1.69,1.39l3,5.22h-3.3l-2.5-4.7H41.79V13Zm2.94-7h1.52a2.76,2.76,0,0,0,1.77-.49,1.74,1.74,0,0,0,.61-1.45,1.44,1.44,0,0,0-.61-1.34,3.42,3.42,0,0,0-1.77-.38H41.79Z"/><path class="cls-3" d="M51.11,13V0h8.16V2.48H54.05V5.1h4.44V7.56H54.05v3h5.42V13Z"/></g><g class="cls-2"><path class="cls-3" d="M0,38V25H3.68a8.18,8.18,0,0,1,3.46.68,5,5,0,0,1,2.27,2.11,7.39,7.39,0,0,1,.81,3.67,7.68,7.68,0,0,1-.8,3.7,5.08,5.08,0,0,1-2.23,2.17A7.48,7.48,0,0,1,3.84,38Zm2.94-2.38H3.5a4.38,4.38,0,0,0,2-.4,2.85,2.85,0,0,0,1.29-1.32,5.54,5.54,0,0,0,.46-2.48A5.35,5.35,0,0,0,6.74,29a2.71,2.71,0,0,0-1.29-1.26,4.68,4.68,0,0,0-1.95-.37H2.94Z"/><path class="cls-3" d="M12.7,38V25h8.16v2.48H15.64V30.1h4.44v2.46H15.64v3h5.42V38Z"/><path class="cls-3" d="M23.66,38V25h8.22v2.48H26.6v3h4.52V33H26.6V38Z"/><path class="cls-3" d="M34.14,38V25h2.94V38Z"/><path class="cls-3" d="M40.16,38V25H43.1V35.56h5.16V38Z"/><path class="cls-3" d="M50.52,38V25h8.16v2.48H53.46V30.1H57.9v2.46H53.46v3h5.42V38Z"/><path class="cls-3" d="M61.48,38V25h4.7a8,8,0,0,1,2.52.37,3.65,3.65,0,0,1,1.82,1.25,3.93,3.93,0,0,1,.68,2.44,4.14,4.14,0,0,1-.63,2.37,3.85,3.85,0,0,1-1.69,1.39l3,5.22h-3.3L66,33.34H64.42V38Zm2.94-7h1.52a2.76,2.76,0,0,0,1.77-.49,1.74,1.74,0,0,0,.61-1.45,1.44,1.44,0,0,0-.61-1.34,3.42,3.42,0,0,0-1.77-.38H64.42Z"/></g></g><g id="组件_5_7" data-name="组件 5 7"><g class="cls-4"><g id="组_2082" data-name="组 2082"><g id="路径_252" data-name="路径 252"><path class="cls-3" d="M21.91,54.88l13.1,16a.39.39,0,0,0,.55.05s0,0,0-.05l13.63-16a.39.39,0,0,0-.05-.54.38.38,0,0,0-.25-.09l-26.73.06a.37.37,0,0,0-.38.37.44.44,0,0,0,.08.25"/></g></g></g></g></g></g></svg>