<svg id="Groupe_2157" data-name="Groupe 2157" xmlns="http://www.w3.org/2000/svg" xmlns:xlink="http://www.w3.org/1999/xlink" width="150" height="48.571" viewBox="0 0 150 48.571">
  <defs>
    <clipPath id="clip-path">
      <rect id="Rectangle_15" data-name="Rectangle 15" width="150" height="48.571" fill="none"/>
    </clipPath>
  </defs>
  <g id="Groupe_18" data-name="Groupe 18" clip-path="url(#clip-path)">
    <path id="Tracé_1" data-name="Tracé 1" d="M173.255,3.762a1.15,1.15,0,0,1,.579-.726,3.541,3.541,0,0,1,1.326-.21v8.041a3.429,3.429,0,0,1-.158,1.21.985.985,0,0,1-.579.558,5.176,5.176,0,0,1-1.347.253l-.168,1.621q2.357-.147,3.81-.147.82,0,3.915.105l.189-1.663-.084-.126q-.652.063-1.094.063a1.058,1.058,0,0,1-.874-.326,1.784,1.784,0,0,1-.263-1.105q0-4.273.168-8.483a3.386,3.386,0,0,1,1.273.2,1.086,1.086,0,0,1,.526.737,13.677,13.677,0,0,1,.305,2.01l2.105-.147q-.085-1.536-.168-4.8l-.232-.253L180.149.8h-6.567L171.308.573l-.253.253q-.042,2.484-.21,4.946l2.1-.147a9.533,9.533,0,0,1,.305-1.863" transform="translate(-116.361 -0.39)" fill="#fe0000"/>
    <path id="Tracé_2" data-name="Tracé 2" d="M211.717,19.447a1.665,1.665,0,0,1-.947.389l-.126,1.326q.295-.042,1.2-.074t1.642-.032q.695,0,1.484.032t1.105.032l.147-1.284-.105-.168a.778.778,0,0,1-.189.042,2.406,2.406,0,0,1-.337.021.5.5,0,0,1-.484-.232,2.155,2.155,0,0,1-.126-.905l.021-1.81.947-.074q.673-.053,1.179-.074l1.3.021v1.768a1.513,1.513,0,0,1-.263,1.021,1.213,1.213,0,0,1-.916.284l-.126,1.347,2.736-.021,2.82.021.168-1.263-.147-.168a1.888,1.888,0,0,0-.189.021,2.4,2.4,0,0,1-.337.021.6.6,0,0,1-.537-.232,1.651,1.651,0,0,1-.158-.863q0-3.347.189-5.957A.936.936,0,0,1,221.9,12a1.8,1.8,0,0,1,.821-.242l.105-1.347q-.337.021-1.22.053t-1.663.032q-2.61,0-2.61-.021l-.147,1.179.147.189h.484a.605.605,0,0,1,.505.168,1.224,1.224,0,0,1,.126.674l-.021,2.063a12.312,12.312,0,0,1-1.642.084l-1.726-.063.1-2.063a1.037,1.037,0,0,1,.19-.674,1.443,1.443,0,0,1,.758-.253l.105-1.368q-.358.021-1.316.053t-1.863.032l-2.189-.021-.147,1.179.147.189h.484a.575.575,0,0,1,.484.168,1.224,1.224,0,0,1,.126.674v5.81a1.479,1.479,0,0,1-.232.958" transform="translate(-143.468 -7.088)" fill="#fe0000"/>
    <path id="Tracé_3" data-name="Tracé 3" d="M255.5,13.9q1.558,0,3.283.055t2.231.081l.252-.3q.084-1.387.242-2.638t.221-1.6l-.168-.3-1.979.191a5.892,5.892,0,0,1-.326,1.5,1.1,1.1,0,0,1-.621.625,3.857,3.857,0,0,1-1.305.163,1.433,1.433,0,0,1-.61-.1.494.494,0,0,1-.253-.34,3.84,3.84,0,0,1-.063-.843q0-1.17.021-2.095a4.873,4.873,0,0,0,.547-.054,5.761,5.761,0,0,1,.779-.054q.674,0,1.295.027t.831.027l.253-2.285-.19-.272q-.231.027-.821.081T258,5.82H256.51l.105-2.638a.665.665,0,0,1,.126-.49,1.025,1.025,0,0,1,.589-.108,5.441,5.441,0,0,1,1.2.095.768.768,0,0,1,.516.34,1.628,1.628,0,0,1,.136.762c0,.164-.007.327-.021.49s-.021.272-.021.327l2.147-.19q.042-1.251.19-2.516t.21-1.618L261.5,0a43.326,43.326,0,0,1-5.368.245q-1.221,0-2.3-.027T252.363.19l-.147,1.55.168.272.484-.028a.4.4,0,0,1,.4.232,2.579,2.579,0,0,1,.1.911l-.021,7.317a2.652,2.652,0,0,1-.242,1.319,1.309,1.309,0,0,1-.916.53l-.168,1.823,1.347-.122q1.052-.1,2.126-.1" transform="translate(-171.653 0.001)" fill="#fe0000"/>
    <path id="Tracé_4" data-name="Tracé 4" d="M36.159,50.347a13.63,13.63,0,0,1,2.16-1.28,9.1,9.1,0,0,1-.133-1.1A1.06,1.06,0,0,1,38.3,47.4a.782.782,0,0,1,.5-.255q.382-.085,1.345-.2l.17-1.981-.17-.254q-.425.029-1.925.113t-2.944.085q-1.246,0-2.476-.028t-1.684-.028l-.226,1.925.142.226a3.3,3.3,0,0,1,1.415.255,1.073,1.073,0,0,1,.481.849q.085.764.085.991c-.221.9-.476,1.906-.764,3l.788.2c1.032-.636,2.079-1.275,3.128-1.943" transform="translate(-21.035 -30.45)" fill="#fe0000"/>
    <path id="Tracé_5" data-name="Tracé 5" d="M35.469,70.064l-.788-.2q-.106.4-.217.82.5-.312,1.006-.624" transform="translate(-23.472 -47.586)" fill="#fe0000"/>
    <path id="Tracé_6" data-name="Tracé 6" d="M50.178,104.235l5.774-.51.166-.533q-3.062-.027-6.131-.123c.076.428.14.817.192,1.166" transform="translate(-34.045 -70.199)" fill="#fe0000"/>
    <path id="Tracé_7" data-name="Tracé 7" d="M70.313,46.908a1.278,1.278,0,0,1,1.033-.755l.2-2.123q-.312,0-1.217.028t-2.038.028q-1.048,0-2.377-.043t-1.727-.07l-.2,2.009.142.226h.934a2.028,2.028,0,0,1,.92.141.542.542,0,0,1,.235.47,18.986,18.986,0,0,1,4.1.087" transform="translate(-43.581 -29.95)" fill="#fe0000"/>
    <path id="Tracé_8" data-name="Tracé 8" d="M66.29,59.265q-.164.616-.313,1.168,1.681.34,3.369.651l2.025-6.5a4.966,4.966,0,0,1,.3-.745,18.966,18.966,0,0,0-4.1-.086c0,.023.005.043.005.067a46.343,46.343,0,0,1-1.288,5.448" transform="translate(-44.936 -36.559)" fill="#fe0000"/>
    <path id="Tracé_9" data-name="Tracé 9" d="M9.979,69.653a30.993,30.993,0,0,1,2.72-2.129c-.115-.571-.239-1.188-.373-1.857q-.225-1.123-.391-2Q9.442,63,6.96,62.285q.711,2.621,1.771,7c.185.765.355,1.469.512,2.119a1.765,1.765,0,0,1,.736-1.755" transform="translate(-4.74 -42.422)" fill="#fe0000"/>
    <path id="Tracé_10" data-name="Tracé 10" d="M20.107,79.9l-.062.227q-.92,3.354-1.2,4.118h-.453q-.262-1.2-.844-4.086a30.986,30.986,0,0,0-2.719,2.13,1.764,1.764,0,0,0-.736,1.755l.223.928c.417,1.116,1.282,2.1,1.789,2.1q2.567.217,5.128.352l1.619-5.752A5.56,5.56,0,0,0,20.107,79.9" transform="translate(-9.587 -54.419)" fill="#fe0000"/>
    <path id="Tracé_11" data-name="Tracé 11" d="M43.508,72.517q-1.021,3.787-1.342,4.676h-.481q-.312-1.456-1.067-5.282-3.087-.671-6.154-1.429-.506.312-1.006.624-.223.837-.471,1.742a5.558,5.558,0,0,1,2.742,1.773l.607-2.154h.34q1.225,5.226,1.733,8.089,3.069.1,6.131.123l2.338-7.511q-1.688-.31-3.369-.651" transform="translate(-22.467 -48.005)" fill="#fe0000"/>
    <path id="Tracé_12" data-name="Tracé 12" d="M39.616,61.6q3.068.757,6.155,1.429l-.136-.69q-.525-2.668-.73-3.962a13.645,13.645,0,0,0-2.16,1.28c-1.049.667-2.1,1.307-3.128,1.943" transform="translate(-26.982 -39.759)" fill="#fe0000"/>
    <path id="Tracé_13" data-name="Tracé 13" d="M15.606,98.9c-.507,0-1.372-.985-1.788-2.1q.641,2.667.907,3.8l4.635-.409A11.349,11.349,0,0,0,18.5,99.12q-1.445-.1-2.892-.216" transform="translate(-9.411 -65.932)" fill="#fe0000"/>
    <path id="Tracé_14" data-name="Tracé 14" d="M30.731,104.2q-1.117-.06-2.237-.136a11.35,11.35,0,0,1,.862,1.076l1.138-.1Z" transform="translate(-19.407 -70.879)" fill="#fe0000"/>
    <path id="Tracé_15" data-name="Tracé 15" d="M6.708,47.963a.967.967,0,0,1,.127-.566.858.858,0,0,1,.51-.255q.382-.085,1.345-.2l.141-1.981-.17-.254q-.425.029-1.9.113t-2.972.085q-1.1,0-2.151-.028T.227,44.849L0,46.774.17,47a1.717,1.717,0,0,1,1.146.481,3.129,3.129,0,0,1,.665,1.33c.076.269.155.559.238.864q2.482.711,4.974,1.379a26.643,26.643,0,0,1-.486-3.092" transform="translate(0 -30.45)" fill="#fe0000"/>
    <path id="Tracé_16" data-name="Tracé 16" d="M106.046,82.381q-2.452-.224-4.889-.525c-.362.018-.659.028-.882.028h-1.33l.093-.3q-.756-.1-1.511-.212a9.185,9.185,0,0,0,8.678,1.57c-.051-.178-.1-.368-.159-.56" transform="translate(-66.425 -55.421)" fill="#fe0000"/>
    <path id="Tracé_17" data-name="Tracé 17" d="M104.247,65.553c-.237-.836-.5-1.794-.8-2.888q-1.09-3.976-1.429-5.307l-.312-.226-5.377.368-1.907,5.442a6.351,6.351,0,0,0,1.311,1.6q.755.11,1.511.212l1.208-3.888h.424L99.863,65c-.183.011-.348.021-.5.029q2.437.3,4.889.525" transform="translate(-64.307 -38.912)" fill="#fe0000"/>
    <path id="Tracé_18" data-name="Tracé 18" d="M93.731,76.952a6.343,6.343,0,0,1-1.31-1.6l-.467,1.332q.888.139,1.777.269" transform="translate(-62.629 -51.321)" fill="#fe0000"/>
    <path id="Tracé_19" data-name="Tracé 19" d="M101.336,99.913l.106-.925-.2-.2h-.736c-.083,0-.159,0-.228-.006.222.376.44.756.659,1.133l.4,0" transform="translate(-68.3 -67.281)" fill="#fe0000"/>
    <path id="Tracé_20" data-name="Tracé 20" d="M83.182,87.014l-.891,2.543a2.16,2.16,0,0,1-.51.863,1.673,1.673,0,0,1-.764.41l-.107,1.12q3.1-.009,6.2-.05c-.218-.377-.437-.758-.659-1.133a.987.987,0,0,1-.437-.093.452.452,0,0,1-.156-.41,2.1,2.1,0,0,1,.051-.38,8.135,8.135,0,0,0-2.726-2.87" transform="translate(-55.108 -59.264)" fill="#fe0000"/>
    <path id="Tracé_21" data-name="Tracé 21" d="M96.869,86.924q-.312.057-1.132.142l-.07,1.079c2.562-.033,5.124-.068,7.688-.091l.08-.762-.141-.2a1.5,1.5,0,0,1-.962-.4,2.6,2.6,0,0,1-.566-1.1q-.265-.836-.664-2.226a9.184,9.184,0,0,1-8.678-1.57q-.89-.129-1.778-.269l-.613,1.749a8.14,8.14,0,0,1,2.726,2.87c.01-.049.021-.1.034-.158l.34-1.132c.151,0,.4-.018.736-.056q.849-.056,1.245-.057,1.3,0,1.925.028l.255,1.075c.018.076.038.156.057.24a1.158,1.158,0,0,1,.028.241.673.673,0,0,1-.1.41.666.666,0,0,1-.41.184" transform="translate(-61.321 -55.529)" fill="#fe0000"/>
    <path id="Tracé_22" data-name="Tracé 22" d="M102.743,102.325l-.4,0q.165.286.332.567Z" transform="translate(-69.707 -69.693)" fill="#fe0000"/>
    <path id="Tracé_23" data-name="Tracé 23" d="M87.974,103.338q-3.1.036-6.2.049l-.063.663h3q1.189,0,2.208.028t1.359.057l.026-.231q-.166-.281-.332-.567" transform="translate(-55.654 -70.383)" fill="#fe0000"/>
    <path id="Tracé_24" data-name="Tracé 24" d="M107.607,103.081l-.044.676.169.17q.368-.029,1.67-.071t2.632-.042l3.17.028.09-.851c-2.564.022-5.126.058-7.687.091" transform="translate(-73.26 -70.146)" fill="#fe0000"/>
    <path id="Tracé_25" data-name="Tracé 25" d="M145.768,72.851a30.556,30.556,0,0,1,4.351.438l-.725-1.1a6.175,6.175,0,0,0,2.165-1.825,4,4,0,0,0,.75-2.363,3.683,3.683,0,0,0-.506-1.957,10.2,10.2,0,0,1-2.208,1.386q-.848.242-1.679.472a2.334,2.334,0,0,1,.064.551,2.363,2.363,0,0,1-.425,1.5,2.831,2.831,0,0,1-1.189.849l-1.868-.226q0-.838.04-1.71a43.941,43.941,0,0,0-4.229,1.478v2.3q2.719.155,5.459.209" transform="translate(-95.563 -44.982)" fill="#fe0000"/>
    <path id="Tracé_26" data-name="Tracé 26" d="M164.866,104.715a2.52,2.52,0,0,0,1.557.467l3.34-.226.094-.715q-2.8-.118-5.585-.166a2.7,2.7,0,0,0,.594.64" transform="translate(-111.884 -70.885)" fill="#fe0000"/>
    <path id="Tracé_27" data-name="Tracé 27" d="M149.828,91.7q-1.132,0-2.377-1.924l-.917-1.391a30.556,30.556,0,0,0-4.351-.438q-2.74-.051-5.459-.209v2.122a1.994,1.994,0,0,1-.34,1.3,2.016,2.016,0,0,1-1.245.538l-.093.895c2.473-.018,4.948-.02,7.426.008l.111-.846-.113-.17a4.272,4.272,0,0,1-1.118-.142.675.675,0,0,1-.438-.424A3.259,3.259,0,0,1,140.8,90l.028-1.755h1.415l1.641,3.481a5.051,5.051,0,0,0,.481.9q2.789.05,5.585.166l.1-.785Z" transform="translate(-91.979 -59.756)" fill="#fe0000"/>
    <path id="Tracé_28" data-name="Tracé 28" d="M134.824,103.935l-.1,1q.367-.028,1.585-.113t2.236-.085q.991,0,2.08.042t1.514.043l.115-.881c-2.478-.028-4.953-.025-7.426-.008" transform="translate(-91.756 -70.78)" fill="#fe0000"/>
    <path id="Tracé_29" data-name="Tracé 29" d="M141.1,59.515a.677.677,0,0,1,.085-.41.4.4,0,0,1,.311-.1,3.993,3.993,0,0,1,2.208.481,1.544,1.544,0,0,1,.644.949q.832-.232,1.68-.472a10.2,10.2,0,0,0,2.208-1.386,3.365,3.365,0,0,0-1.05-1.072,8.489,8.489,0,0,0-4.613-1.019q-.482.028-1.727.085t-2.349.056l-3.2-.028-.226,1.642.2.226.821-.028a.568.568,0,0,1,.509.212,1.508,1.508,0,0,1,.142.778v3.447a43.908,43.908,0,0,1,4.229-1.478q.042-.924.129-1.884" transform="translate(-91.998 -38.473)" fill="#fe0000"/>
    <path id="Tracé_30" data-name="Tracé 30" d="M194.579,57.768q-1.553.042-3.489.042-1.642,0-3.1-.028t-1.967-.028l-.161,1.315c2.762-.231,5.714.106,8.321-.59q.192-.357.4-.71" transform="translate(-126.589 -39.335)" fill="#fe0000"/>
    <path id="Tracé_31" data-name="Tracé 31" d="M205.207,80.36l.19-.019a10.034,10.034,0,0,1,1.047-.056q.906,0,1.741.028t1.118.028l.34-2.377-.255-.283q-.312.028-1.1.085t-1.5.056h-1.347a12.65,12.65,0,0,0-.23,2.538" transform="translate(-139.764 -52.908)" fill="#fe0000"/>
    <path id="Tracé_32" data-name="Tracé 32" d="M184.973,63.2l.651-.028a.572.572,0,0,1,.538.24,2.125,2.125,0,0,1,.141.948l-.025,6.747q2.053.052,4.1.1c0-.528.012-1.019.026-1.465.107,0,.291-.013.546-.037a12.623,12.623,0,0,1,.23-2.538h-.663l.141-2.745q0-.4.17-.509a1.708,1.708,0,0,1,.792-.114c.227,0,.432,0,.621.01q.387-.9.859-1.775c-2.607.7-5.559.359-8.321.59l-.037.3Z" transform="translate(-125.83 -42.246)" fill="#fe0000"/>
    <path id="Tracé_33" data-name="Tracé 33" d="M213.881,59.625q-.712.033-1.531.055-.2.354-.4.711a8.412,8.412,0,0,0,1.927-.766" transform="translate(-144.36 -40.61)" fill="#fe0000"/>
    <path id="Tracé_34" data-name="Tracé 34" d="M193.281,96.014a3.638,3.638,0,0,1-1.966-2c-.045-.127-.08-.253-.121-.38a2.286,2.286,0,0,1-.736-.1.552.552,0,0,1-.34-.354,3.127,3.127,0,0,1-.085-.877c0-.247,0-.483,0-.714q-2.05-.043-4.1-.1l0,.866a2.239,2.239,0,0,1-.326,1.373,1.9,1.9,0,0,1-1.231.552L184.24,95.4q1.782.086,3.567.205c1.337.118,2.675.246,4.012.376.465.008.934.017,1.413.029h.049" transform="translate(-125.484 -62.316)" fill="#fe0000"/>
    <path id="Tracé_35" data-name="Tracé 35" d="M209.259,61.831a6.7,6.7,0,0,1,.992.089,1.077,1.077,0,0,1,.694.354,1.368,1.368,0,0,1,.184.792,4.688,4.688,0,0,1-.028.509q-.029.255-.028.34l2.887-.2a24.809,24.809,0,0,1,.255-2.618q.2-1.316.283-1.684l-.255-.283q-.927.1-2.2.157a8.39,8.39,0,0,1-1.927.766q-.472.877-.859,1.776" transform="translate(-142.524 -40.275)" fill="#fe0000"/>
    <path id="Tracé_36" data-name="Tracé 36" d="M219.539,88.44l-.226-.312-2.661.2c-.023.145-.048.281-.073.41q1.447.022,2.893.037c.027-.142.049-.255.068-.333" transform="translate(-147.51 -60.023)" fill="#fe0000"/>
    <path id="Tracé_37" data-name="Tracé 37" d="M185.041,104.746l-.093.78,1.811-.127q1.415-.1,2.859-.1t3,.028q-2.006-.2-4.012-.376-1.786-.121-3.567-.205" transform="translate(-125.966 -71.342)" fill="#fe0000"/>
    <path id="Tracé_38" data-name="Tracé 38" d="M209.886,92.833a6.638,6.638,0,0,1-1.755.17l-.085,0c.041.127.076.253.121.38a3.638,3.638,0,0,0,1.966,2q2.277.055,2.951.084l.34-.311q.113-1.443.325-2.745c.1-.591.173-1.035.23-1.337q-1.446-.015-2.893-.037a4.083,4.083,0,0,1-.365,1.147,1.361,1.361,0,0,1-.835.651" transform="translate(-141.698 -62.003)" fill="#fe0000"/>
    <path id="Tracé_39" data-name="Tracé 39" d="M264.284,55.647q-1.189.043-2.236.043-3.51,0-3.51-.028l-.2,1.585.2.254h.651a.814.814,0,0,1,.679.226,1.642,1.642,0,0,1,.17.906l-.012,1.142a14.376,14.376,0,0,1,3.124-1.706,4.168,4.168,0,0,0,2.773-2.476v-.016q-.453.029-1.641.071" transform="translate(-175.954 -37.852)" fill="#fe0000"/>
    <path id="Tracé_40" data-name="Tracé 40" d="M234.322,65.852c.715-.768,1.423-1.557,2.152-2.332-.31-.174-.615-.339-.911-.487-2.232-1.276-2.551-4.465-1.276-6.378a3.753,3.753,0,0,1,.632-.808c-.6.014-1.193.024-1.77.024l-2.943-.028-.2,1.585.2.255h.651a.774.774,0,0,1,.651.226,1.646,1.646,0,0,1,.17.906v7.037q1.323,0,2.644,0" transform="translate(-156.656 -38.034)" fill="#fe0000"/>
    <path id="Tracé_41" data-name="Tracé 41" d="M244.108,62.852c.3.148.6.313.911.487.586-.623,1.188-1.236,1.815-1.82h-.1l-2.321-.085.142-2.774a1.394,1.394,0,0,1,.255-.906,1.945,1.945,0,0,1,1.019-.34l.142-1.84q-.481.029-1.769.071c-.249.008-.491.013-.735.018a3.743,3.743,0,0,0-.632.808c-1.276,1.913-.957,5.1,1.276,6.378" transform="translate(-164.883 -37.852)" fill="#fe0000"/>
    <path id="Tracé_42" data-name="Tracé 42" d="M258.345,60.1a14.373,14.373,0,0,0-3.124,1.706L255.2,63.44a16.017,16.017,0,0,1-2.105.113c-.628.584-1.229,1.2-1.815,1.82.377.211.763.438,1.157.672.369-.025.707-.045,1.009-.057l1.755.028V67.64q2.054-.039,4.108-.1.027-3.844.251-6.925a1.257,1.257,0,0,1,.311-.863,2.422,2.422,0,0,1,1.1-.325l.14-1.8a4.168,4.168,0,0,1-2.773,2.476" transform="translate(-171.147 -39.249)" fill="#fe0000"/>
    <path id="Tracé_43" data-name="Tracé 43" d="M232.279,93.289a2.243,2.243,0,0,1-1.274.524l-.126,1.318a3.866,3.866,0,0,0,.493-.344,26.324,26.324,0,0,0,3.861-3.56q-1.322,0-2.644,0V92a1.991,1.991,0,0,1-.311,1.288" transform="translate(-157.25 -62.134)" fill="#fe0000"/>
    <path id="Tracé_44" data-name="Tracé 44" d="M259.83,93.8a2.037,2.037,0,0,1-.354,1.373,1.631,1.631,0,0,1-1.232.382l-.17,1.811,3.679-.028,3.793.028.226-1.7-.2-.226a2.518,2.518,0,0,0-.255.028,3.2,3.2,0,0,1-.453.028.809.809,0,0,1-.722-.311,1.462,1.462,0,0,1-.181-.625,11.826,11.826,0,0,1-4.135-1.5Z" transform="translate(-175.773 -63.384)" fill="#fe0000"/>
    <path id="Tracé_45" data-name="Tracé 45" d="M263.578,90.814a11.826,11.826,0,0,0,4.135,1.5,4.509,4.509,0,0,1-.031-.535q0-.55,0-1.084-2.053.066-4.108.105Z" transform="translate(-179.521 -61.774)" fill="#fe0000"/>
    <path id="Tracé_46" data-name="Tracé 46" d="M231.278,96.774a3.865,3.865,0,0,1-.493.344l-.044.464q.4-.057,1.613-.1t2.207-.042q.935,0,2,.042t1.486.043l.2-1.727-.142-.226a1.026,1.026,0,0,1-.255.057,3.237,3.237,0,0,1-.453.028.673.673,0,0,1-.651-.312,2.89,2.89,0,0,1-.17-1.217l.011-.922q-.721,0-1.442.006a26.343,26.343,0,0,1-3.862,3.56" transform="translate(-157.156 -63.483)" fill="#fe0000"/>
    <path id="Tracé_47" data-name="Tracé 47" d="M247.267,84.631c.2-.016.392-.029.576-.042-.394-.234-.78-.461-1.157-.672-.729.774-1.438,1.564-2.153,2.332l1.442-.006.018-1.512,1.273-.1" transform="translate(-166.55 -57.155)" fill="#fe0000"/>
    <path id="Tracé_48" data-name="Tracé 48" d="M318.535,59.661a5.37,5.37,0,0,0-1.3-.946,10.893,10.893,0,0,1-1.575,1.491c-.454.341-.884.681-1.3,1.021a2.541,2.541,0,0,1,.526.726,10.229,10.229,0,0,1,.637,4.231c0,.38-.018.728-.05,1.051q2.33-.193,4.661-.437a10.858,10.858,0,0,0,.172-1.945,7.042,7.042,0,0,0-1.769-5.193" transform="translate(-214.106 -39.99)" fill="#fe0000"/>
    <path id="Tracé_49" data-name="Tracé 49" d="M318.844,87.509a10.039,10.039,0,0,1,2.838,3.266,6.952,6.952,0,0,0,1.825-3.711q-2.331.244-4.661.436v.009" transform="translate(-217.162 -59.298)" fill="#fe0000"/>
    <path id="Tracé_50" data-name="Tracé 50" d="M288.122,90.145l-1.052.049c.05.214.111.419.176.62.3-.22.592-.444.876-.669" transform="translate(-195.521 -61.397)" fill="#fe0000"/>
    <path id="Tracé_51" data-name="Tracé 51" d="M286.73,79.485a14.094,14.094,0,0,1-1.3-3.9,11.145,11.145,0,0,0-.133,1.757,10.007,10.007,0,0,0,.247,2.3l1.052-.049.134-.106" transform="translate(-194.313 -51.481)" fill="#fe0000"/>
    <path id="Tracé_52" data-name="Tracé 52" d="M303.518,57.907a2.09,2.09,0,0,1,1.5.561c.414-.34.844-.68,1.3-1.021a10.912,10.912,0,0,0,1.575-1.491,8.139,8.139,0,0,0-3.832-.823,11.4,11.4,0,0,0-1.619.113,3.207,3.207,0,0,0-1.226,3.477,5.245,5.245,0,0,0,.254.8,3.025,3.025,0,0,1,.3-.693,1.915,1.915,0,0,1,1.755-.92" transform="translate(-205.083 -37.551)" fill="#fe0000"/>
    <path id="Tracé_53" data-name="Tracé 53" d="M291.393,62.153c0-.053,0-.1,0-.156a7.777,7.777,0,0,1,.268-2.237,5.241,5.241,0,0,1-.254-.8,3.207,3.207,0,0,1,1.226-3.477,6.949,6.949,0,0,0-4.042,1.882,6.819,6.819,0,0,0-1.877,3.89,14.1,14.1,0,0,0,1.3,3.9c1.211-.968,2.291-1.975,3.381-3.005" transform="translate(-195.277 -37.792)" fill="#fe0000"/>
    <path id="Tracé_54" data-name="Tracé 54" d="M313.774,104.29q.161.014.321.024c.165-.036.328-.075.487-.12l-.807.1" transform="translate(-213.709 -70.966)" fill="#fe0000"/>
    <path id="Tracé_55" data-name="Tracé 55" d="M291.706,94.713a9.616,9.616,0,0,1-3.025-3.594l-.181.008c-.284.225-.575.448-.876.669A5.893,5.893,0,0,0,289,94.115a6.732,6.732,0,0,0,4.926,1.833q1.02-.124,2.039-.245a12.457,12.457,0,0,1-4.257-.99" transform="translate(-195.898 -62.06)" fill="#fe0000"/>
    <path id="Tracé_56" data-name="Tracé 56" d="M307.379,104.739c.062,0,.12.006.182.006a10.2,10.2,0,0,0,2.178-.227c-.107-.007-.214-.015-.321-.024q-1.019.121-2.039.245" transform="translate(-209.353 -71.17)" fill="#fe0000"/>
    <path id="Tracé_57" data-name="Tracé 57" d="M290.37,89.919l.181-.008c-.017-.032-.031-.065-.048-.1l-.134.106" transform="translate(-197.768 -61.171)" fill="#fe0000"/>
    <path id="Tracé_58" data-name="Tracé 58" d="M299.2,88.46a4.344,4.344,0,0,1-.543,1.883,2,2,0,0,1-1.811.934,2.042,2.042,0,0,1-1.967-1.3,5.29,5.29,0,0,1-.366-1.184q-1.787.111-3.573.2a9.613,9.613,0,0,0,3.025,3.594,12.456,12.456,0,0,0,4.257.99l.807-.1A6.633,6.633,0,0,0,302,91.772c.015-.015.027-.032.041-.047A10.038,10.038,0,0,0,299.2,88.46" transform="translate(-198.157 -60.249)" fill="#fe0000"/>
    <path id="Tracé_59" data-name="Tracé 59" d="M294.17,78.389c-1.09,1.03-2.17,2.037-3.381,3.005.017.032.031.066.048.1q1.787-.087,3.574-.2a15.574,15.574,0,0,1-.241-2.9" transform="translate(-198.054 -53.39)" fill="#fe0000"/>
    <path id="Tracé_60" data-name="Tracé 60" d="M365.909,69.648c.456-.075.912-.15,1.368-.228a17.34,17.34,0,0,1,2.077-2.759V65.243a1.026,1.026,0,0,1,.079-.427,4.891,4.891,0,0,0-3.574.27c.008.115.013.239.013.383Z" transform="translate(-249.185 -43.994)" fill="#fe0000"/>
    <path id="Tracé_61" data-name="Tracé 61" d="M346.3,61.555l.044-1.979a1.282,1.282,0,0,1,.312-.792,1.308,1.308,0,0,1,.877-.283l.226-1.925q-.34.029-1.245.071t-1.783.042c-.564,0-1.1,0-1.6-.012a36.363,36.363,0,0,1,1.607,6.006,13.49,13.49,0,0,1,1.566-1.128" transform="translate(-233.698 -38.533)" fill="#fe0000"/>
    <path id="Tracé_62" data-name="Tracé 62" d="M365.168,83.872a2.534,2.534,0,0,1-.3,1.2q-.08.431-.118.857,1.781-.342,3.537-.751a6.423,6.423,0,0,0,.312-2.058V80.558q-1.039.193-2.077.373a13.7,13.7,0,0,0-1.352,2.941" transform="translate(-248.427 -54.867)" fill="#fe0000"/>
    <path id="Tracé_63" data-name="Tracé 63" d="M334.51,57.754l-.226,1.811.057.085.679-.028q.452,0,.58.226a2.311,2.311,0,0,1,.127.962v5.356l.341-.04a19.482,19.482,0,0,1,2.323-2.323,36.4,36.4,0,0,0-1.607-6.006c-.274,0-.543-.009-.8-.016q-1.1-.028-1.472-.028" transform="translate(-227.678 -39.336)" fill="#fe0000"/>
    <path id="Tracé_64" data-name="Tracé 64" d="M348.722,78.273c.314-.042.628-.088.942-.133l.065-2.951a13.489,13.489,0,0,0-1.566,1.128c.159.66.338,1.315.559,1.957" transform="translate(-237.131 -51.211)" fill="#fe0000"/>
    <path id="Tracé_65" data-name="Tracé 65" d="M372.381,75.461V73.075a17.31,17.31,0,0,0-2.077,2.759q1.039-.179,2.077-.373" transform="translate(-252.211 -49.771)" fill="#fe0000"/>
    <path id="Tracé_66" data-name="Tracé 66" d="M347.387,95.719a1.448,1.448,0,0,1-.2.269,1.832,1.832,0,0,1-1.13.495.756.756,0,0,1-1.12.087c-.074-.074-.144-.15-.214-.225a1.788,1.788,0,0,1-.414-.242,29.9,29.9,0,0,0-4.754.081,3.667,3.667,0,0,0,.838,1.5c2.315-.317,4.611-.675,6.879-1.109q.037-.425.118-.857" transform="translate(-231.267 -65.193)" fill="#fe0000"/>
    <path id="Tracé_67" data-name="Tracé 67" d="M348.941,99.067c-2.268.435-4.564.792-6.879,1.109a3.3,3.3,0,0,0,.284.27,6.668,6.668,0,0,0,4.3,1.132,9.647,9.647,0,0,0,2.437-.284,6.982,6.982,0,0,1-.144-2.227" transform="translate(-232.976 -67.474)" fill="#fe0000"/>
    <path id="Tracé_68" data-name="Tracé 68" d="M350.826,85.91l.033-1.466c-.314.044-.628.09-.942.133a11.732,11.732,0,0,0,1.006,2.207,3.991,3.991,0,0,1-.1-.874" transform="translate(-238.325 -57.514)" fill="#fe0000"/>
    <path id="Tracé_69" data-name="Tracé 69" d="M342.509,88.1a2.452,2.452,0,0,1-.469-1.036,11.745,11.745,0,0,1-1.007-2.207q-1.441.195-2.882.366-.172.2-.341.407V86.7a6.16,6.16,0,0,0,.237,1.768,29.9,29.9,0,0,1,4.754-.081,1.83,1.83,0,0,1-.292-.285" transform="translate(-230.08 -57.797)" fill="#fe0000"/>
    <path id="Tracé_70" data-name="Tracé 70" d="M356.755,96.684c.07.075.14.151.214.225a.757.757,0,0,0,1.121-.087,3.457,3.457,0,0,1-.427.028,2.337,2.337,0,0,1-.908-.166" transform="translate(-242.983 -65.851)" fill="#fe0000"/>
    <path id="Tracé_71" data-name="Tracé 71" d="M339.81,86.048v.367q.169-.205.341-.407l-.341.04" transform="translate(-231.442 -58.579)" fill="#fe0000"/>
    <path id="Tracé_72" data-name="Tracé 72" d="M366.622,58.1a.488.488,0,0,1,.147-.2,3.676,3.676,0,0,1,.99-.4l.17-1.839q-.312.028-1.2.057t-1.967.028q-.792,0-1.627-.028t-1.146-.028l-.255,1.811.056.085.651-.028a.509.509,0,0,1,.5.24,1.545,1.545,0,0,1,.114.565,4.892,4.892,0,0,1,3.574-.27" transform="translate(-246.372 -37.913)" fill="#fe0000"/>
    <path id="Tracé_73" data-name="Tracé 73" d="M343.2,78.725a19.435,19.435,0,0,0-2.323,2.323q1.441-.173,2.882-.366c-.221-.641-.4-1.3-.559-1.957" transform="translate(-232.17 -53.619)" fill="#fe0000"/>
    <path id="Tracé_74" data-name="Tracé 74" d="M368.758,96.777q-1.756.413-3.537.751a6.98,6.98,0,0,0,.144,2.227,5.2,5.2,0,0,0,2.148-1.074,4.281,4.281,0,0,0,1.245-1.9" transform="translate(-248.728 -65.914)" fill="#fe0000"/>
    <path id="Tracé_75" data-name="Tracé 75" d="M366.029,84.668a13.7,13.7,0,0,1,1.352-2.941c-.456.079-.912.153-1.368.228l.021,2.528c0,.064,0,.124-.005.184" transform="translate(-249.288 -55.664)" fill="#fe0000"/>
    <path id="Tracé_76" data-name="Tracé 76" d="M410.566,71.935l-.024.383.283.17,2.377-.17c.029-.318.067-.625.105-.932a13.6,13.6,0,0,0-1.846.32c-.3.079-.6.152-.9.229" transform="translate(-279.617 -48.621)" fill="#fe0000"/>
    <path id="Tracé_77" data-name="Tracé 77" d="M385.846,89.416c-.008.268-.027.549-.053.84q1.341-.381,2.662-.824c0-.07-.005-.14-.005-.214Z" transform="translate(-262.76 -60.766)" fill="#fe0000"/>
    <path id="Tracé_78" data-name="Tracé 78" d="M389.4,78.742l.821.34.314.129c.9-.338,1.8-.7,2.689-1.09a12.329,12.329,0,0,0-1.1-2.565q-.484-.214-.824-.389-2.577.614-5.149,1.14a3,3,0,0,0,.59.78,9.014,9.014,0,0,0,2.66,1.655" transform="translate(-263.003 -51.195)" fill="#fe0000"/>
    <path id="Tracé_79" data-name="Tracé 79" d="M391.2,62.574a1.182,1.182,0,0,1-.694-1.047.89.89,0,0,1,.339-.7c-.594-.833-1.233-1.664-1.875-2.509a5.4,5.4,0,0,0-2.13,1.511,3.672,3.672,0,0,0-.863,2.406,3.476,3.476,0,0,0,.372,1.64q2.573-.525,5.149-1.14c-.11-.056-.212-.11-.3-.16" transform="translate(-262.889 -39.72)" fill="#fe0000"/>
    <path id="Tracé_80" data-name="Tracé 80" d="M397.4,59.218a2.33,2.33,0,0,1,1.259-.311q1.9,0,1.9,1.613l0,.07c.3-.077.6-.15.9-.229a13.6,13.6,0,0,1,1.846-.32c.062-.495.133-.98.22-1.446q.212-1.131.3-1.444l-.254-.424q-.142-.056-.708-.2a14.3,14.3,0,0,0-1.529-.269,15.732,15.732,0,0,0-2.066-.128,10.272,10.272,0,0,0-3.594.58c-.1.037-.195.077-.29.117.641.844,1.28,1.676,1.874,2.509a1.313,1.313,0,0,1,.156-.121" transform="translate(-269.282 -38.232)" fill="#fe0000"/>
    <path id="Tracé_81" data-name="Tracé 81" d="M392.067,86.43c-.888.391-1.785.752-2.689,1.09a10.867,10.867,0,0,1,1.625.8,1.162,1.162,0,0,1,.608.991.906.906,0,0,1-.5.807,2.671,2.671,0,0,1-1.372.3,2.2,2.2,0,0,1-1.684-.566,2.57,2.57,0,0,1-.518-1.683q-1.321.442-2.662.824c-.036.406-.088.832-.159,1.283q-.185,1.161-.269,1.528l.255.368a5.619,5.619,0,0,0,.721.3,10.99,10.99,0,0,0,1.571.41,11.158,11.158,0,0,0,2.179.2,13.583,13.583,0,0,0,2.211-.168c.023-.039.048-.077.071-.116a8.626,8.626,0,0,0,.608-6.365" transform="translate(-261.846 -58.867)" fill="#fe0000"/>
    <path id="Tracé_82" data-name="Tracé 82" d="M407.883,84.616a8.626,8.626,0,0,1-.608,6.365c-.023.04-.048.077-.071.116a7.533,7.533,0,0,0,2.926-1.063,3.8,3.8,0,0,0,1.882-3.326,3.04,3.04,0,0,0-1.076-2.476,7.658,7.658,0,0,0-.63-.466c-.829.269-1.638.535-2.393.837l-.03.013" transform="translate(-277.343 -57.052)" fill="#fe0000"/>
    <path id="Tracé_83" data-name="Tracé 83" d="M404.881,76.386a12.338,12.338,0,0,1,1.1,2.565l.03-.012c.755-.3,1.565-.569,2.393-.837a13.819,13.819,0,0,0-2.341-1.218c-.449-.181-.841-.346-1.183-.5" transform="translate(-275.761 -52.026)" fill="#fe0000"/>
    <path id="Tracé_84" data-name="Tracé 84" d="M435.138,53.424a13.1,13.1,0,0,0-4.062-2.313,20.921,20.921,0,0,0,.767,5.762q.494.014.986.024c.2-.188.4-.383.589-.594.593-.711,1.142-1.379,1.679-2.035l.029-.632a1.915,1.915,0,0,1,.011-.211" transform="translate(-293.601 -34.811)" fill="#fe0000"/>
    <path id="Tracé_85" data-name="Tracé 85" d="M454.629,48.521l-.278-.35q-1.227.145-3,.224a7.586,7.586,0,0,0-1.42,1.122c-.578.693-1.113,1.344-1.637,1.984a8.821,8.821,0,0,1,1.7.122,1.141,1.141,0,0,1,.758.438,1.869,1.869,0,0,1,.2.981c0,.21-.011.42-.031.63s-.031.35-.031.421l1.622-.126a12.2,12.2,0,0,1,1.565-.74q.074-1.3.247-2.62.216-1.63.309-2.085" transform="translate(-305.328 -32.809)" fill="#fe0000"/>
    <path id="Tracé_86" data-name="Tracé 86" d="M438.578,64.638c.724.013,1.442.014,2.15-.021l.119-2.608c-.538.656-1.086,1.323-1.679,2.035a8.354,8.354,0,0,1-.589.594" transform="translate(-298.712 -42.234)" fill="#fe0000"/>
    <path id="Tracé_87" data-name="Tracé 87" d="M434.682,71.851a9.232,9.232,0,0,0,.79-.648c-.328-.006-.656-.015-.986-.024.061.225.128.448.2.672" transform="translate(-295.925 -48.479)" fill="#fe0000"/>
    <path id="Tracé_88" data-name="Tracé 88" d="M463.043,64.643c.008-.207.019-.414.031-.621a12.185,12.185,0,0,0-1.565.741Z" transform="translate(-314.33 -43.605)" fill="#fe0000"/>
    <path id="Tracé_89" data-name="Tracé 89" d="M449.951,91.438q2.536.069,3.279.1l.371-.385q.123-1.787.356-3.4t.325-2.067l-.247-.386-2.908.245a6.81,6.81,0,0,1-.48,1.927,1.534,1.534,0,0,1-.913.806,6.429,6.429,0,0,1-1.918.21,2.381,2.381,0,0,1-.9-.123.645.645,0,0,1-.162-.106,33.71,33.71,0,0,0,2.173,3.146c.338.008.676.016,1.021.025" transform="translate(-304.282 -58.101)" fill="#fe0000"/>
    <path id="Tracé_90" data-name="Tracé 90" d="M455.755,74.376c.192.005.387.009.574.016q.912.035,1.222.035l.371-2.943-.278-.35q-.341.035-1.207.105c-.3.025-.6.042-.884.053a3.949,3.949,0,0,1,.2,3.084" transform="translate(-310.273 -48.449)" fill="#fe0000"/>
    <path id="Tracé_91" data-name="Tracé 91" d="M437.767,98.651c.2,0,.4-.011.6-.011q1.823,0,3.806.045A33.673,33.673,0,0,1,440,95.538l-.025-.024a17.447,17.447,0,0,0-2.2,3.137" transform="translate(-298.159 -65.054)" fill="#fe0000"/>
    <path id="Tracé_92" data-name="Tracé 92" d="M438.032,71.345l.007-.158c-.708.035-1.426.034-2.15.021a9.248,9.248,0,0,1-.791.648,29.341,29.341,0,0,0,2.865,6.433,4.519,4.519,0,0,1-.087-1.058q0-1.506.031-2.7a8.05,8.05,0,0,0,.8-.07,9.7,9.7,0,0,1,1.145-.07c.457,0,.9.008,1.329.019a3.949,3.949,0,0,0-.2-3.084c-.258.01-.511.016-.756.016Z" transform="translate(-296.342 -48.485)" fill="#fe0000"/>
    <path id="Tracé_93" data-name="Tracé 93" d="M429.162,79.747c0-.008,0-.019-.006-.028a29.34,29.34,0,0,1-2.865-6.433,11.707,11.707,0,0,1-1.693,1.028l-.014,4.417a3.06,3.06,0,0,1-.356,1.7,1.989,1.989,0,0,1-1.345.683l-.247,2.347,1.98-.158c.835-.066,1.678-.1,2.527-.111a17.457,17.457,0,0,1,2.2-3.137.692.692,0,0,1-.183-.308" transform="translate(-287.853 -49.914)" fill="#fe0000"/>
    <path id="Tracé_94" data-name="Tracé 94" d="M423.755,50.724l.711-.035a.6.6,0,0,1,.587.3,2.925,2.925,0,0,1,.155,1.174L425.2,55.43c.5.01,1,.025,1.492.039a20.934,20.934,0,0,1-.767-5.762,17.932,17.932,0,0,0-2.272-.658l-.143,1.325Z" transform="translate(-288.448 -33.407)" fill="#fe0000"/>
    <path id="Tracé_95" data-name="Tracé 95" d="M429.288,70.1c-.5-.014-.994-.029-1.492-.039l-.006,1.739a11.706,11.706,0,0,0,1.693-1.028c-.068-.224-.135-.447-.2-.672" transform="translate(-291.365 -47.715)" fill="#fe0000"/>
    <path id="Tracé_96" data-name="Tracé 96" d="M426.3,46.978l-.118,0q-1.594-.035-2.15-.035l-.073.673a18.015,18.015,0,0,1,2.272.657c.006-.432.032-.863.07-1.293" transform="translate(-288.754 -31.971)" fill="#fe0000"/>
    <path id="Tracé_97" data-name="Tracé 97" d="M435.142,50.537a.587.587,0,0,1,.174-.42,1.677,1.677,0,0,1,.866-.14h.068c.524-.64,1.06-1.291,1.637-1.984a7.561,7.561,0,0,1,1.42-1.122q-2.072.092-4.888.092-1.729,0-3.269-.033c-.038.43-.064.86-.07,1.293a13.1,13.1,0,0,1,4.062,2.313" transform="translate(-293.605 -31.924)" fill="#fe0000"/>
    <text id="escape_game" data-name="escape game" transform="translate(39.562 43.767)" fill="#fe0000" font-size="12" font-family="SourceSansPro-Light, Source Sans Pro" font-weight="300"><tspan x="0" y="0">es</tspan><tspan y="0" letter-spacing="-0.009em">c</tspan><tspan y="0">ape </tspan><tspan y="0" letter-spacing="-0.015em">g</tspan><tspan y="0">ame</tspan></text>
  </g>
</svg>
